<?xml version="1.0" encoding="utf-8"?>
<!-- Generator: Adobe Illustrator 24.2.3, SVG Export Plug-In . SVG Version: 6.00 Build 0)  -->
<svg version="1.1" id="圖層_1" xmlns="http://www.w3.org/2000/svg" xmlns:xlink="http://www.w3.org/1999/xlink" x="0px" y="0px"
	 viewBox="0 0 70 30" style="enable-background:new 0 0 70 30;" xml:space="preserve">
<style type="text/css">
	.st0{fill:#E1D28F;}
	.st1{fill:#606060;}
	.st2{fill:#FFFFFF;}
	.st3{fill:none;stroke:#E1D28F;stroke-miterlimit:10;}
</style>
<g>
	<g>
		<path class="st0" d="M152.6-74.9c0,0.1,0,0.2-0.1,0.2l-2.8,0.6c-0.1,0-0.2,0.1-0.1,0.2c0,0.1,0.1,0.2,0.2,0.1l2.8-0.6
			c0.1,0,0.2,0,0.2,0.1s0,0.2-0.1,0.2l-2.8,0.6c-0.1,0-0.2,0.1-0.1,0.2c0,0.1,0.1,0.2,0.2,0.1l2.8-0.6c0.1,0,0.2,0,0.2,0.1
			s0,0.2-0.1,0.2l-2.8,0.6c-0.1,0-0.2,0.1-0.1,0.2c0,0.1,0.1,0.2,0.2,0.1l2.8-0.6c0.1,0,0.2,0,0.2,0.1s0,0.2-0.1,0.2l-2.8,0.6
			c-0.4,0.1-0.7,0.2-1,0.2c-0.7,0.2-1.3-0.2-1.6-0.4c-0.2-0.1-0.5-0.1-0.6-0.1c-0.5,0.1-4.1,0.9-4.5,1s-4.4,1.3-4.7,1.3
			c-0.3,0.1-0.9-0.1-1-0.4s0.5-0.7,0.7-0.8c0.3-0.1,4.4-0.6,4.8-0.7c0.4-0.1,4-0.9,4.5-1c0.1,0,0.5-0.2,0.6-0.3
			c0.2-0.3,0.6-0.8,1.3-1c0.3-0.1,0.7-0.1,1-0.2l2.8-0.6C152.5-75,152.6-75,152.6-74.9z"/>
		<path class="st0" d="M148.4-60.8c0,0-3.2-4.4-8.3-1.8c0,0-1.1-3.8-1.1-4.4s0-2.6,0.4-2.7s0.5,0,0.6,0.3c0.1,0.2,1,0.3,1.2,0.1
			c0,0,0.9,0.2,1.1,0.1c0,0,0.9,0.1,1.2-0.2c0,0,1.1,0.2,1.7-1.3c0,0,0.4-1-0.2-1.8c-0.6-0.8-1.4-2-2.7-2s-2.4-0.1-2.4-0.1
			s-1.5-0.2-3,1.1c0,0-0.7,0.9-0.9,1.8s-2,5.1-2,5.1s-2.6,4.1-1.8,8.8c0,0,0,1.7,0.2,1.9s1.9,2.1,5.7,1.9c0,0,4.4,2.9,10.5-0.5
			c0,0,1.7-1.5,1.2-3.6C149.6-58.1,149.5-59.5,148.4-60.8z"/>
		<path class="st1" d="M143.7-73.2l0.8,1.3c0,0,0.3,0.8,0,0.9s-0.7-0.8-1.3-2.1c0,0,0.5,2,0.5,2.2c0,0.1,0.1,0.7-0.4,0.7
			s-0.8-2.2-0.8-2.2l-0.3-0.3c0,0,0.4,2.6,0.1,2.9s-0.7,0-0.7-0.4s-0.1-2-0.4-2.4v2.6c0,0-0.1,0.5-0.5,0.4c-0.4,0-0.5-0.5-0.6-2.2
			h-0.3l-0.1,0.7c0,0-0.7-0.4-0.8-0.6c0,0,0,0.7,0.3,1c0.4,0.2-0.2,0.4-0.5,0.3c-0.3-0.2-1-0.7-1-0.7s0.2,0.6,0.1,1
			s-1.2,3.2-0.5,4.4c0,0,0.2-3.3,1.2-4l0.3-0.1c0,0-0.6,2.9-0.5,3.6s0,2.2,0,2.2s0.2-1.1,0.4-1.3s0.2,1.6,0.5,2s0.6,2.6,0.4,3.2
			s-0.6,1-0.6,1s1.1-0.5,1.2-2s4.3-3,8,0.7c0,0,1.1,1.1,1.1,2.8s-2.2,3.2-4.5,3.4s-3.8,0.4-5.1-0.1c0,0-0.4-0.3,0.1-0.6
			s0.6-1.4,0.6-1.4s-0.6,1.4-2.4,1.6c-1.8,0.2-4-0.7-4-0.9c0,0,1.8-0.3,2.2-0.9c0,0-2.5,0.6-3,0.1s-0.5-0.7-0.3-0.7s0.5,0.3,0.7,0.3
			c0,0-0.9-1.1-1-2.2c-0.1-1.1,0.2-4.3,2.1-8.2s2-5.4,2-5.4s0.6-1.2,1.7-1.1c1.1,0.1,1.6,0.5,2.5,0.4c0,0-1.3-0.5-1.4-0.6
			c-0.1-0.2,0-0.3,1.4,0.1s1.6,0.3,1.6,0.3s-0.7-0.3-0.7-0.4C141.6-74.1,143-74.3,143.7-73.2z"/>
		<path class="st0" d="M140-58.5c0,0,2.7,1.4,5.4,0.3c0,0,2.5-1.3,2.5-1.8c0,0,0.1,2.3-3.9,2.7C140.1-56.8,140-58.5,140-58.5z"/>
	</g>
	<text transform="matrix(1 0 0 1 150.7007 -63.4034)" class="st0" style="font-family:'GochiHand-Regular'; font-size:13.9534px;">FITNES</text>
	<text transform="matrix(1 0 0 1 191.7007 -63.4034)" class="st0" style="font-family:'GochiHand-Regular'; font-size:13.9534px;">S</text>
	<text transform="matrix(1 0 0 1 150.7007 -54.1034)" class="st0" style="font-family:'GochiHand-Regular'; font-size:13.9534px;">KITCHE</text>
	<text transform="matrix(1 0 0 1 189.7007 -54.1034)" class="st0" style="font-family:'GochiHand-Regular'; font-size:13.9534px;">N</text>
</g>
<g>
	<g>
		<path class="st0" d="M258.7-76.5c0,0.1,0,0.2-0.1,0.2l-2.7,1c-0.1,0-0.1,0.1-0.1,0.2s0.1,0.1,0.2,0.1l2.7-1c0.1,0,0.2,0,0.2,0.1
			s0,0.2-0.1,0.2l-2.7,1c-0.1,0-0.1,0.1-0.1,0.2s0.1,0.1,0.2,0.1l2.7-1c0.1,0,0.2,0,0.2,0.1s0,0.2-0.1,0.2l-2.7,1
			c-0.1,0-0.1,0.1-0.1,0.2s0.1,0.1,0.2,0.1l2.7-1c0.1,0,0.2,0,0.2,0.1s0,0.2-0.1,0.2l-2.7,1c-0.3,0.1-0.7,0.2-1,0.4
			c-0.7,0.3-1.3,0-1.6-0.2c-0.2-0.1-0.5,0-0.6,0c-0.5,0.2-3.9,1.4-4.3,1.6c-0.4,0.1-4.2,1.9-4.5,2s-1,0-1.1-0.3s0.4-0.8,0.6-0.9
			s4.3-1.2,4.7-1.3c0.4-0.1,3.9-1.4,4.3-1.6c0.1,0,0.4-0.2,0.5-0.4c0.2-0.3,0.4-0.9,1.2-1.2c0.3-0.1,0.7-0.2,1-0.4l2.7-1
			C258.6-76.6,258.7-76.5,258.7-76.5z"/>
		<path class="st0" d="M256.3-61.9c0,0-3.8-4-8.4-0.7c0,0-1.6-3.6-1.7-4.2s-0.3-2.6,0-2.7c0.3-0.2,0.5-0.1,0.6,0.2
			c0.1,0.2,1,0.1,1.2,0c0,0,0.9,0.1,1.1-0.1c0,0,0.9,0,1.1-0.4c0,0,1.1,0,1.5-1.6c0,0,0.2-1-0.4-1.7c-0.7-0.7-1.6-1.8-2.9-1.6
			c-1.3,0.2-2.4,0.2-2.4,0.2s-1.5,0-2.8,1.5c0,0-0.6,1-0.7,1.9c-0.1,0.9-1.3,5.3-1.3,5.3s-2.1,4.4-0.6,9c0,0,0.2,1.7,0.4,1.9
			s2.2,1.8,5.9,1.2c0,0,4.8,2.3,10.3-1.9c0,0,1.4-1.7,0.7-3.7C257.9-59.4,257.6-60.7,256.3-61.9z"/>
		<path class="st1" d="M250.1-73.6l0.9,1.2c0,0,0.4,0.8,0.1,0.9s-0.8-0.7-1.6-1.9c0,0,0.7,2,0.7,2.1s0.2,0.7-0.3,0.8
			c-0.5,0.1-1.1-2.1-1.1-2.1l-0.3-0.3c0,0,0.8,2.5,0.5,2.8s-0.7,0.1-0.7-0.3s-0.4-2-0.8-2.4l0.4,2.5c0,0,0,0.5-0.4,0.5
			s-0.6-0.4-0.9-2.2h-0.3v0.7c0,0-0.7-0.3-0.9-0.5c0,0,0.1,0.7,0.4,0.9c0.4,0.2-0.2,0.5-0.5,0.4s-1.1-0.5-1.1-0.5s0.3,0.6,0.2,1
			s-0.8,3.3,0.1,4.4c0,0-0.3-3.2,0.7-4.1l0.3-0.1c0,0-0.2,3,0,3.6s0.3,2.2,0.3,2.2s0.1-1.2,0.2-1.3c0.2-0.2,0.4,1.6,0.7,2
			s0.9,2.5,0.8,3.2c-0.2,0.6-0.5,1.1-0.5,1.1s1-0.7,0.9-2.1c-0.1-1.5,3.9-3.5,8-0.4c0,0,1.2,1,1.5,2.7s-1.7,3.4-4,4
			c-2.2,0.6-3.7,0.9-5.1,0.5c0,0-0.4-0.2,0-0.6c0.5-0.3,0.4-1.5,0.4-1.5s-0.4,1.5-2.1,1.9c-1.7,0.4-4-0.2-4-0.4c0,0,1.7-0.5,2.1-1.2
			c0,0-2.4,0.9-3,0.5s-0.6-0.6-0.4-0.6s0.6,0.2,0.8,0.2c0,0-1-1-1.2-2.1s-0.3-4.3,1-8.4s1.3-5.6,1.3-5.6s0.4-1.3,1.5-1.3
			s1.7,0.2,2.5,0.1c0,0-1.3-0.3-1.5-0.4s0-0.3,1.4-0.1c1.4,0.2,1.6,0.1,1.6,0.1s-0.8-0.2-0.8-0.3C247.9-74.2,249.2-74.6,250.1-73.6z
			"/>
		<path class="st0" d="M248.3-58.6c0,0,2.8,1,5.4-0.4c0,0,2.3-1.6,2.3-2.1c0,0,0.4,2.3-3.5,3.2S248.3-58.6,248.3-58.6z"/>
	</g>
	<text transform="matrix(1 0 0 1 259.1615 -64.3701)" class="st0" style="font-family:'JockeyOne-Regular'; font-size:11.5526px;">FITNES</text>
	<text transform="matrix(1 0 0 1 288.0615 -64.3701)" class="st0" style="font-family:'JockeyOne-Regular'; font-size:11.5526px;">S</text>
	<text transform="matrix(1 0 0 1 259.1615 -54.0701)" class="st0" style="font-family:'JockeyOne-Regular'; font-size:11.5526px;">KITCHE</text>
	<text transform="matrix(1 0 0 1 287.4615 -54.0701)" class="st0" style="font-family:'JockeyOne-Regular'; font-size:11.5526px;">N</text>
</g>
<g>
	<g>
		<path class="st0" d="M258.7-31.6c0,0.1,0,0.2-0.1,0.2l-2.7,1c-0.1,0-0.1,0.1-0.1,0.2s0.1,0.1,0.2,0.1l2.7-1c0.1,0,0.2,0,0.2,0.1
			s0,0.2-0.1,0.2l-2.7,1c-0.1,0-0.1,0.1-0.1,0.2s0.1,0.1,0.2,0.1l2.7-1c0.1,0,0.2,0,0.2,0.1s0,0.2-0.1,0.2l-2.7,1
			c-0.1,0-0.1,0.1-0.1,0.2s0.1,0.1,0.2,0.1l2.7-1c0.1,0,0.2,0,0.2,0.1s0,0.2-0.1,0.2l-2.7,1c-0.3,0.1-0.7,0.2-1,0.4
			c-0.7,0.3-1.3,0-1.6-0.2c-0.2-0.1-0.5,0-0.6,0c-0.5,0.2-3.9,1.4-4.3,1.6c-0.4,0.1-4.2,1.9-4.5,2s-1,0-1.1-0.3s0.4-0.8,0.6-0.9
			s4.3-1.2,4.7-1.3c0.4-0.1,3.9-1.4,4.3-1.6c0.1,0,0.4-0.2,0.5-0.4c0.2-0.3,0.4-0.9,1.2-1.2c0.3-0.1,0.7-0.2,1-0.4l2.7-1
			C258.6-31.7,258.7-31.7,258.7-31.6z"/>
		<path class="st0" d="M256.3-17c0,0-3.8-4-8.4-0.7c0,0-1.6-3.6-1.7-4.2s-0.3-2.6,0-2.7c0.3-0.2,0.5-0.1,0.6,0.2
			c0.1,0.2,1,0.1,1.2,0c0,0,0.9,0.1,1.1-0.1c0,0,0.9,0,1.1-0.4c0,0,1.1,0,1.5-1.6c0,0,0.2-1-0.4-1.7c-0.7-0.7-1.6-1.8-2.9-1.6
			s-2.4,0.2-2.4,0.2s-1.5,0-2.8,1.5c0,0-0.6,1-0.7,1.9c-0.1,0.9-1.3,5.3-1.3,5.3s-2.1,4.4-0.6,9c0,0,0.2,1.7,0.4,1.9
			s2.2,1.8,5.9,1.2c0,0,4.8,2.3,10.3-1.9c0,0,1.4-1.7,0.7-3.7C257.9-14.6,257.6-15.9,256.3-17z"/>
		<path class="st1" d="M250.1-28.7l0.9,1.2c0,0,0.4,0.8,0.1,0.9s-0.8-0.7-1.6-1.9c0,0,0.7,2,0.7,2.1s0.2,0.7-0.3,0.8
			c-0.5,0.1-1.1-2.1-1.1-2.1l-0.3-0.3c0,0,0.8,2.5,0.5,2.8s-0.7,0.1-0.7-0.3s-0.4-2-0.8-2.4l0.4,2.5c0,0,0,0.5-0.4,0.5
			s-0.6-0.4-0.9-2.2h-0.3v0.7c0,0-0.7-0.3-0.9-0.5c0,0,0.1,0.7,0.4,0.9c0.4,0.2-0.2,0.5-0.5,0.4s-1.1-0.5-1.1-0.5s0.3,0.6,0.2,1
			s-0.8,3.3,0.1,4.4c0,0-0.3-3.2,0.7-4.1l0.3-0.1c0,0-0.2,3,0,3.6s0.3,2.2,0.3,2.2s0.1-1.2,0.2-1.3c0.2-0.2,0.4,1.6,0.7,2
			s0.9,2.5,0.8,3.2c-0.2,0.6-0.5,1.1-0.5,1.1s1-0.7,0.9-2.1c-0.1-1.5,3.9-3.5,8-0.4c0,0,1.2,1,1.5,2.7s-1.7,3.4-4,4
			c-2.2,0.6-3.7,0.9-5.1,0.5c0,0-0.4-0.2,0-0.6c0.5-0.3,0.4-1.5,0.4-1.5s-0.4,1.5-2.1,1.9c-1.7,0.4-4-0.2-4-0.4c0,0,1.7-0.5,2.1-1.2
			c0,0-2.4,0.9-3,0.5s-0.6-0.6-0.4-0.6s0.6,0.2,0.8,0.2c0,0-1-1-1.2-2.1s-0.3-4.3,1-8.4s1.3-5.6,1.3-5.6s0.4-1.3,1.5-1.3
			s1.7,0.2,2.5,0.1c0,0-1.3-0.3-1.5-0.4s0-0.3,1.4-0.1s1.6,0.1,1.6,0.1s-0.8-0.2-0.8-0.3C247.9-29.4,249.2-29.7,250.1-28.7z"/>
		<path class="st0" d="M248.3-13.7c0,0,2.8,1,5.4-0.4c0,0,2.3-1.6,2.3-2.1c0,0,0.4,2.3-3.5,3.2S248.3-13.7,248.3-13.7z"/>
	</g>
	<text transform="matrix(1 0 0 1 259.4679 -20.0055)" class="st0" style="font-family:'Lemon-Regular'; font-size:10.9151px;">FITNES</text>
	<text transform="matrix(1 0 0 1 301.0679 -20.0055)" class="st0" style="font-family:'Lemon-Regular'; font-size:10.9151px;">S</text>
	<text transform="matrix(1 0 0 1 259.4679 -10.3055)" class="st0" style="font-family:'Lemon-Regular'; font-size:10.9151px;">KITCHE</text>
	<text transform="matrix(1 0 0 1 299.9679 -10.3055)" class="st0" style="font-family:'Lemon-Regular'; font-size:10.9151px;">N</text>
</g>
<g>
	<g>
		<path class="st0" d="M359.5-77.5c0,0.1,0,0.2-0.1,0.2l-2.7,1c-0.1,0-0.1,0.1-0.1,0.2s0.1,0.1,0.2,0.1l2.7-1c0.1,0,0.2,0,0.2,0.1
			s0,0.2-0.1,0.2l-2.7,1c-0.1,0-0.1,0.1-0.1,0.2s0.1,0.1,0.2,0.1l2.7-1c0.1,0,0.2,0,0.2,0.1s0,0.2-0.1,0.2l-2.7,1
			c-0.1,0-0.1,0.1-0.1,0.2s0.1,0.1,0.2,0.1l2.7-1c0.1,0,0.2,0,0.2,0.1s0,0.2-0.1,0.2l-2.7,1c-0.3,0.1-0.7,0.2-1,0.4
			c-0.7,0.3-1.3,0-1.6-0.2c-0.2-0.1-0.5,0-0.6,0c-0.5,0.2-3.9,1.4-4.3,1.6c-0.4,0.1-4.2,1.9-4.5,2s-1,0-1.1-0.3s0.4-0.8,0.6-0.9
			c0.3-0.1,4.3-1.2,4.7-1.3c0.4-0.1,3.9-1.4,4.3-1.6c0.1,0,0.4-0.2,0.5-0.4c0.2-0.3,0.4-0.9,1.2-1.2c0.3-0.1,0.7-0.2,1-0.4l2.7-1
			C359.3-77.6,359.4-77.5,359.5-77.5z"/>
		<path class="st0" d="M357.1-62.9c0,0-3.8-4-8.4-0.7c0,0-1.6-3.6-1.7-4.2s-0.3-2.6,0-2.7s0.5-0.1,0.6,0.2c0.1,0.2,1,0.1,1.2,0
			c0,0,0.9,0.1,1.1-0.1c0,0,0.9,0,1.1-0.4c0,0,1.1,0,1.5-1.6c0,0,0.2-1-0.4-1.7c-0.7-0.7-1.6-1.8-2.9-1.6s-2.4,0.2-2.4,0.2
			s-1.5,0-2.8,1.5c0,0-0.6,1-0.7,1.9s-1.3,5.3-1.3,5.3s-2.1,4.4-0.6,9c0,0,0.2,1.7,0.4,1.9c0.2,0.2,2.2,1.8,5.9,1.2
			c0,0,4.8,2.3,10.3-1.9c0,0,1.4-1.7,0.7-3.7C358.7-60.4,358.4-61.7,357.1-62.9z"/>
		<path class="st1" d="M350.8-74.6l0.9,1.2c0,0,0.4,0.8,0.1,0.9c-0.3,0.2-0.8-0.7-1.6-1.9c0,0,0.7,2,0.7,2.1s0.2,0.7-0.3,0.8
			c-0.5,0.1-1.1-2.1-1.1-2.1l-0.3-0.3c0,0,0.8,2.5,0.5,2.8c-0.2,0.3-0.7,0.1-0.7-0.3s-0.4-2-0.8-2.4l0.4,2.5c0,0,0,0.5-0.4,0.5
			s-0.6-0.4-0.9-2.2H347v0.7c0,0-0.7-0.3-0.9-0.5c0,0,0.1,0.7,0.4,0.9c0.4,0.2-0.2,0.5-0.5,0.4s-1.1-0.5-1.1-0.5s0.3,0.6,0.2,1
			c-0.1,0.4-0.8,3.3,0.1,4.4c0,0-0.3-3.2,0.7-4.1l0.3-0.1c0,0-0.2,3,0,3.6s0.3,2.2,0.3,2.2s0.1-1.2,0.2-1.3c0.2-0.2,0.4,1.6,0.7,2
			c0.3,0.4,0.9,2.5,0.8,3.2c-0.2,0.6-0.5,1.1-0.5,1.1s1-0.7,0.9-2.1c-0.1-1.5,3.9-3.5,8-0.4c0,0,1.2,1,1.5,2.7s-1.7,3.4-4,4
			c-2.2,0.6-3.7,0.9-5.1,0.5c0,0-0.4-0.2,0-0.6s0.4-1.5,0.4-1.5s-0.4,1.5-2.1,1.9s-4-0.2-4-0.4c0,0,1.7-0.5,2.1-1.2
			c0,0-2.4,0.9-3,0.5s-0.6-0.6-0.4-0.6s0.6,0.2,0.8,0.2c0,0-1-1-1.2-2.1s-0.3-4.3,1-8.4c1.4-4.2,1.3-5.6,1.3-5.6s0.4-1.3,1.5-1.3
			s1.7,0.2,2.5,0.1c0,0-1.3-0.3-1.5-0.4s0-0.3,1.4-0.1c1.4,0.2,1.6,0.1,1.6,0.1s-0.8-0.2-0.8-0.3C348.7-75.2,350-75.6,350.8-74.6z"
			/>
		<path class="st0" d="M349.1-59.6c0,0,2.8,1,5.4-0.4c0,0,2.3-1.6,2.3-2.1c0,0,0.4,2.3-3.5,3.2C349.4-57.8,349.1-59.6,349.1-59.6z"
			/>
	</g>
	<text transform="matrix(1 0 0 1 360.2475 -65.8706)" class="st0" style="font-family:'OleoScript-Regular'; font-size:10.9151px;">FITNES</text>
	<text transform="matrix(1 0 0 1 395.0475 -65.8706)" class="st0" style="font-family:'OleoScript-Regular'; font-size:10.9151px;">S</text>
	<text transform="matrix(1 0 0 1 360.2475 -56.1706)" class="st0" style="font-family:'OleoScript-Regular'; font-size:10.9151px;">KITCHE</text>
	<text transform="matrix(1 0 0 1 393.1475 -56.1706)" class="st0" style="font-family:'OleoScript-Regular'; font-size:10.9151px;">N</text>
</g>
<g>
	<g>
		<path class="st0" d="M260.8,15.6c0,0.1,0,0.2-0.1,0.2l-2.8,0.6c-0.1,0-0.2,0.1-0.1,0.2c0,0.1,0.1,0.2,0.2,0.1l2.8-0.6
			c0.1,0,0.2,0,0.2,0.1s0,0.2-0.1,0.2L258,17c-0.1,0-0.2,0.1-0.1,0.2c0,0.1,0.1,0.2,0.2,0.1l2.8-0.6c0.1,0,0.2,0,0.2,0.1
			s0,0.2-0.1,0.2l-2.8,0.6c-0.1,0-0.2,0.1-0.1,0.2c0,0.1,0.1,0.2,0.2,0.1l2.8-0.6c0.1,0,0.2,0,0.2,0.1s0,0.2-0.1,0.2l-2.8,0.6
			c-0.4,0.1-0.7,0.2-1,0.2c-0.7,0.2-1.3-0.2-1.6-0.4c-0.2-0.1-0.5-0.1-0.6-0.1c-0.5,0.1-4.1,0.9-4.5,1s-4.4,1.3-4.7,1.3
			c-0.3,0.1-0.9-0.1-1-0.4s0.5-0.7,0.7-0.8s4.4-0.6,4.8-0.7c0.4-0.1,4-0.9,4.5-1c0.1,0,0.5-0.2,0.6-0.3c0.2-0.3,0.6-0.8,1.3-1
			c0.3-0.1,0.7-0.1,1-0.2l2.8-0.6C260.7,15.4,260.7,15.5,260.8,15.6z"/>
		<path class="st0" d="M256.5,29.7c0,0-3.2-4.4-8.3-1.8c0,0-1.1-3.8-1.1-4.4s0-2.6,0.4-2.7s0.5,0,0.6,0.3c0.1,0.2,1,0.3,1.2,0.1
			c0,0,0.9,0.2,1.1,0.1c0,0,0.9,0.1,1.2-0.2c0,0,1.1,0.2,1.7-1.3c0,0,0.4-1-0.2-1.8c-0.6-0.8-1.4-2-2.7-2s-2.4-0.1-2.4-0.1
			s-1.5-0.2-3,1.1c0,0-0.7,0.9-0.9,1.8s-2,5.1-2,5.1s-2.6,4.1-1.8,8.8c0,0,0,1.7,0.2,1.9s1.9,2.1,5.7,1.9c0,0,4.4,2.9,10.5-0.5
			c0,0,1.7-1.5,1.2-3.6C257.7,32.3,257.6,31,256.5,29.7z"/>
		<path class="st1" d="M251.8,17.3l0.8,1.3c0,0,0.3,0.8,0,0.9s-0.7-0.8-1.3-2.1c0,0,0.5,2,0.5,2.2c0,0.1,0.1,0.7-0.4,0.7
			s-0.8-2.2-0.8-2.2l-0.3-0.3c0,0,0.4,2.6,0.1,2.9c-0.3,0.3-0.7,0-0.7-0.4s-0.1-2-0.4-2.4v2.6c0,0-0.1,0.5-0.5,0.4
			c-0.4,0-0.5-0.5-0.6-2.2h-0.3l-0.1,0.7c0,0-0.7-0.4-0.8-0.6c0,0,0,0.7,0.3,1c0.4,0.2-0.2,0.4-0.5,0.3c-0.3-0.2-1-0.7-1-0.7
			s0.2,0.6,0.1,1c-0.2,0.4-1.2,3.2-0.5,4.4c0,0,0.2-3.3,1.2-4l0.3-0.1c0,0-0.6,2.9-0.5,3.6s0,2.2,0,2.2s0.2-1.1,0.4-1.3
			c0.2-0.1,0.2,1.6,0.5,2s0.6,2.6,0.4,3.2s-0.6,1-0.6,1s1.1-0.5,1.2-2s4.3-3,8,0.7c0,0,1.1,1.1,1.1,2.8s-2.2,3.2-4.5,3.4
			s-3.8,0.4-5.1-0.1c0,0-0.4-0.3,0.1-0.6s0.6-1.4,0.6-1.4s-0.6,1.4-2.4,1.6c-1.8,0.2-4-0.7-4-0.9c0,0,1.8-0.3,2.2-0.9
			c0,0-2.5,0.6-3,0.1s-0.5-0.7-0.3-0.7s0.5,0.3,0.7,0.3c0,0-0.9-1.1-1-2.2c-0.1-1.1,0.2-4.3,2.1-8.2s2-5.4,2-5.4s0.6-1.2,1.7-1.1
			c1.1,0.1,1.6,0.5,2.5,0.4c0,0-1.3-0.5-1.4-0.6s0-0.3,1.4,0.1s1.6,0.3,1.6,0.3s-0.7-0.3-0.7-0.4C249.8,16.4,251.2,16.2,251.8,17.3z
			"/>
		<path class="st0" d="M248.1,31.9c0,0,2.7,1.4,5.4,0.3c0,0,2.5-1.3,2.5-1.8c0,0,0.1,2.3-3.9,2.7C248.2,33.7,248.1,31.9,248.1,31.9z
			"/>
	</g>
	<text transform="matrix(1 0 0 1 258.5717 26.2441)" class="st0" style="font-family:'ConcertOne-Regular'; font-size:10.6863px;">FITNES</text>
	<text transform="matrix(1 0 0 1 290.2717 26.2441)" class="st0" style="font-family:'ConcertOne-Regular'; font-size:10.6863px;">S</text>
	<text transform="matrix(1 0 0 1 258.5717 36.8441)" class="st0" style="font-family:'ConcertOne-Regular'; font-size:10.6863px;">KITCHE</text>
	<text transform="matrix(1 0 0 1 288.8717 36.8441)" class="st0" style="font-family:'ConcertOne-Regular'; font-size:10.6863px;">N</text>
</g>
<g>
	<g>
		<path class="st0" d="M472.5-37.9c0,0.1,0,0.2-0.1,0.2l-3.2,0.9c-0.1,0-0.2,0.1-0.1,0.2c0,0.1,0.1,0.2,0.2,0.1l3.2-0.9
			c0.1,0,0.2,0,0.2,0.1s0,0.2-0.1,0.2l-3.2,0.9c-0.1,0-0.2,0.1-0.1,0.2c0,0.1,0.1,0.2,0.2,0.1l3.2-0.9c0.1,0,0.2,0,0.2,0.1
			s0,0.2-0.1,0.2l-3.2,0.9c-0.1,0-0.2,0.1-0.1,0.2c0,0.1,0.1,0.2,0.2,0.1l3.2-0.9c0.1,0,0.2,0,0.2,0.1s0,0.2-0.1,0.2l-3.2,0.9
			c-0.4,0.1-0.8,0.2-1.2,0.3c-0.8,0.2-1.6-0.2-1.9-0.3c-0.2-0.1-0.6-0.1-0.7,0c-0.5,0.2-4.7,1.3-5.2,1.4c-0.5,0.1-5,1.8-5.4,1.9
			c-0.3,0.1-1.1-0.1-1.2-0.4s0.5-0.9,0.8-1s5.1-1,5.6-1.2c0.5-0.1,4.6-1.3,5.2-1.4c0.2,0,0.5-0.2,0.6-0.4c0.2-0.3,0.6-1,1.4-1.3
			c0.4-0.1,0.8-0.2,1.2-0.3l3.2-0.9C472.3-38,472.5-38,472.5-37.9z"/>
		<path class="st0" d="M468.5-21.1c0,0-4.1-4.9-9.8-1.5c0,0-1.6-4.3-1.6-5.1c-0.1-0.8-0.1-3,0.3-3.2s0.6,0,0.7,0.3s1.2,0.2,1.4,0.1
			c0,0,1.1,0.2,1.3,0c0,0,1.1,0.1,1.4-0.3c0,0,1.3,0.1,1.9-1.7c0,0,0.4-1.2-0.4-2c-0.7-0.8-1.8-2.2-3.3-2.1c-1.5,0.1-2.8,0-2.8,0
			s-1.7-0.1-3.4,1.5c0,0-0.8,1.1-1,2.2c-0.1,1.1-2,6-2,6s-2.8,5-1.5,10.4c0,0,0.1,2,0.3,2.2c0.2,0.2,2.4,2.3,6.7,1.9
			c0,0,5.4,3.1,12.2-1.3c0,0,1.8-1.9,1.2-4.3C470.1-18.1,469.9-19.6,468.5-21.1z"/>
		<path class="st1" d="M462.2-35.2l1,1.5c0,0,0.4,0.9,0,1.1s-0.8-0.9-1.7-2.4c0,0,0.7,2.4,0.7,2.5s0.2,0.9-0.5,0.9
			c-0.6,0-1.1-2.6-1.1-2.6l-0.4-0.3c0,0,0.7,3,0.4,3.4s-0.8,0-0.8-0.4s-0.3-2.3-0.7-2.8l0.2,3c0,0-0.1,0.6-0.6,0.5
			c-0.5,0-0.6-0.6-0.9-2.6h-0.3l-0.1,0.8c0,0-0.8-0.4-1-0.7c0,0,0,0.8,0.4,1.1s-0.2,0.5-0.6,0.4s-1.3-0.7-1.3-0.7s0.3,0.7,0.1,1.2
			c-0.2,0.5-1.2,3.8-0.3,5.1c0,0,0-3.8,1.1-4.7l0.4-0.1c0,0-0.5,3.5-0.4,4.2c0.1,0.8,0.2,2.6,0.2,2.6s0.2-1.3,0.4-1.5
			c0.2-0.2,0.3,1.9,0.7,2.4c0.3,0.5,0.9,3,0.6,3.8c-0.2,0.7-0.6,1.2-0.6,1.2s1.2-0.7,1.3-2.4s4.8-3.8,9.4,0.2c0,0,1.3,1.2,1.5,3.2
			s-2.3,3.8-5,4.3s-4.4,0.7-6,0.2c0,0-0.5-0.3,0.1-0.7c0.6-0.3,0.6-1.7,0.6-1.7s-0.6,1.7-2.7,2.1c-2,0.4-4.7-0.5-4.7-0.8
			c0,0,2-0.4,2.5-1.2c0,0-2.9,0.8-3.5,0.3s-0.7-0.8-0.4-0.8s0.6,0.3,0.9,0.3c0,0-1.1-1.3-1.3-2.5c-0.1-1.3,0-5,1.9-9.7s2-6.4,2-6.4
			s0.6-1.5,1.9-1.4c1.2,0.1,1.9,0.4,2.9,0.3c0,0-1.5-0.4-1.7-0.6s0-0.3,1.7,0c1.6,0.3,1.9,0.2,1.9,0.2s-0.9-0.3-0.9-0.5
			C459.7-36.2,461.3-36.5,462.2-35.2z"/>
		<path class="st0" d="M458.9-17.9c0,0,3.2,1.5,6.4,0c0,0,2.8-1.7,2.8-2.2c0,0,0.3,2.7-4.3,3.5C459.2-15.8,458.9-17.9,458.9-17.9z"
			/>
	</g>
	<text transform="matrix(1 0 0 1 471.2064 -25.8138)" class="st0" style="font-family:'Chewy-Regular'; font-size:11.1259px;">FITNES</text>
	<text transform="matrix(1 0 0 1 503.9064 -25.8138)" class="st0" style="font-family:'Chewy-Regular'; font-size:11.1259px;">S</text>
	<text transform="matrix(1 0 0 1 471.2064 -14.8138)" class="st0" style="font-family:'Chewy-Regular'; font-size:11.1259px;">KITCHEN</text>
</g>
<g>
	<g>
		<path class="st0" d="M155,12.5c0,0.1,0,0.2-0.1,0.2l-3.2,0.9c-0.1,0-0.2,0.1-0.1,0.2c0,0.1,0.1,0.2,0.2,0.1L155,13
			c0.1,0,0.2,0,0.2,0.1s0,0.2-0.1,0.2l-3.2,0.9c-0.1,0-0.2,0.1-0.1,0.2c0,0.1,0.1,0.2,0.2,0.1l3.2-0.9c0.1,0,0.2,0,0.2,0.1
			s0,0.2-0.1,0.2l-3.2,0.9c-0.1,0-0.2,0.1-0.1,0.2c0,0.1,0.1,0.2,0.2,0.1l3.2-0.9c0.1,0,0.2,0,0.2,0.1s0,0.2-0.1,0.2l-3.2,0.9
			c-0.4,0.1-0.8,0.2-1.2,0.3c-0.8,0.2-1.6-0.2-1.9-0.3c-0.2-0.1-0.6-0.1-0.7,0c-0.5,0.2-4.7,1.3-5.2,1.4s-5,1.8-5.4,1.9
			s-1.1-0.1-1.2-0.4c-0.1-0.3,0.5-0.9,0.8-1s5.1-1,5.6-1.2c0.5-0.1,4.6-1.3,5.2-1.4c0.2,0,0.5-0.2,0.6-0.4c0.2-0.3,0.6-1,1.4-1.3
			c0.4-0.1,0.8-0.2,1.2-0.3l3.2-0.9C154.9,12.3,155,12.4,155,12.5z"/>
		<path class="st0" d="M151.1,29.3c0,0-4.1-4.9-9.8-1.5c0,0-1.6-4.3-1.6-5.1s-0.1-3,0.3-3.2c0.4-0.2,0.6,0,0.7,0.3
			c0.1,0.3,1.2,0.2,1.4,0.1c0,0,1.1,0.2,1.3,0c0,0,1.1,0.1,1.4-0.3c0,0,1.3,0.1,1.9-1.7c0,0,0.4-1.2-0.4-2c-0.7-0.8-1.8-2.2-3.3-2.1
			c-1.5,0.1-2.8,0-2.8,0s-1.7-0.1-3.4,1.5c0,0-0.8,1.1-1,2.2c-0.1,1.1-2,6-2,6s-2.8,5-1.5,10.4c0,0,0.1,2,0.3,2.2s2.4,2.3,6.7,1.9
			c0,0,5.4,3.1,12.2-1.3c0,0,1.8-1.9,1.2-4.3C152.6,32.2,152.4,30.7,151.1,29.3z"/>
		<path class="st1" d="M144.7,15.1l1,1.5c0,0,0.4,0.9,0,1.1s-0.8-0.9-1.7-2.4c0,0,0.7,2.4,0.7,2.5s0.2,0.9-0.5,0.9
			c-0.6,0-1.1-2.6-1.1-2.6l-0.4-0.3c0,0,0.7,3,0.4,3.4c-0.3,0.4-0.8,0-0.8-0.4s-0.3-2.3-0.7-2.8l0.2,3c0,0-0.1,0.6-0.6,0.5
			c-0.5,0-0.6-0.6-0.9-2.6H140l-0.1,0.8c0,0-0.8-0.4-1-0.7c0,0,0,0.8,0.4,1.1c0.4,0.3-0.2,0.5-0.6,0.4c-0.4-0.2-1.3-0.7-1.3-0.7
			s0.3,0.7,0.1,1.2s-1.2,3.8-0.3,5.1c0,0,0-3.8,1.1-4.7l0.4-0.1c0,0-0.5,3.5-0.4,4.2c0.1,0.8,0.2,2.6,0.2,2.6s0.2-1.3,0.4-1.5
			s0.3,1.9,0.7,2.4c0.3,0.5,0.9,3,0.6,3.8c-0.2,0.7-0.6,1.2-0.6,1.2s1.2-0.7,1.3-2.4s4.8-3.8,9.4,0.2c0,0,1.3,1.2,1.5,3.2
			s-2.3,3.8-5,4.3s-4.4,0.7-6,0.2c0,0-0.5-0.3,0.1-0.7c0.6-0.3,0.6-1.7,0.6-1.7s-0.6,1.7-2.7,2.1s-4.7-0.5-4.7-0.8
			c0,0,2-0.4,2.5-1.2c0,0-2.9,0.8-3.5,0.3s-0.7-0.8-0.4-0.8c0.2,0,0.6,0.3,0.9,0.3c0,0-1.1-1.3-1.3-2.5c-0.1-1.3,0-5,1.9-9.7
			s2-6.4,2-6.4s0.6-1.5,1.9-1.4s1.9,0.4,2.9,0.3c0,0-1.5-0.4-1.7-0.6c-0.2-0.2,0-0.3,1.7,0c1.6,0.3,1.9,0.2,1.9,0.2
			s-0.9-0.3-0.9-0.5S143.9,13.8,144.7,15.1z"/>
		<path class="st0" d="M141.4,32.5c0,0,3.2,1.5,6.4,0c0,0,2.8-1.7,2.8-2.2c0,0,0.3,2.7-4.3,3.5C141.6,34.5,141.4,32.5,141.4,32.5z"
			/>
	</g>
	<text transform="matrix(1 0 0 1 153.7651 24.364)" class="st0" style="font-family:'ChelaOne-Regular'; font-size:10.0976px;">FITNESS</text>
	<text transform="matrix(1 0 0 1 153.7651 36.464)" class="st0" style="font-family:'ChelaOne-Regular'; font-size:10.0976px;">KITCHEN</text>
</g>
<g>
	<g>
		<path class="st0" d="M472.5,11c0,0.1,0,0.2-0.1,0.2l-3.2,0.9c-0.1,0-0.2,0.1-0.1,0.2c0,0.1,0.1,0.2,0.2,0.1l3.2-0.9
			c0.1,0,0.2,0,0.2,0.1s0,0.2-0.1,0.2l-3.2,0.9c-0.1,0-0.2,0.1-0.1,0.2c0,0.1,0.1,0.2,0.2,0.1l3.2-0.9c0.1,0,0.2,0,0.2,0.1
			s0,0.2-0.1,0.2l-3.2,0.9c-0.1,0-0.2,0.1-0.1,0.2c0,0.1,0.1,0.2,0.2,0.1l3.2-0.9c0.1,0,0.2,0,0.2,0.1s0,0.2-0.1,0.2l-3.2,0.9
			c-0.4,0.1-0.8,0.2-1.2,0.3c-0.8,0.2-1.6-0.2-1.9-0.3c-0.2-0.1-0.6-0.1-0.7,0c-0.5,0.2-4.7,1.3-5.2,1.4c-0.5,0.1-5,1.8-5.4,1.9
			c-0.3,0.1-1.1-0.1-1.2-0.4s0.5-0.9,0.8-1s5.1-1,5.6-1.2c0.5-0.1,4.6-1.3,5.2-1.4c0.2,0,0.5-0.2,0.6-0.4c0.2-0.3,0.6-1,1.4-1.3
			c0.4-0.1,0.8-0.2,1.2-0.3l3.2-0.9C472.3,10.9,472.5,10.9,472.5,11z"/>
		<path class="st0" d="M468.5,27.8c0,0-4.1-4.9-9.8-1.5c0,0-1.6-4.3-1.6-5.1s-0.1-3,0.3-3.2s0.6,0,0.7,0.3s1.2,0.2,1.4,0.1
			c0,0,1.1,0.2,1.3,0c0,0,1.1,0.1,1.4-0.3c0,0,1.3,0.1,1.9-1.7c0,0,0.4-1.2-0.4-2c-0.7-0.8-1.8-2.2-3.3-2.1c-1.5,0.1-2.8,0-2.8,0
			s-1.7-0.1-3.4,1.5c0,0-0.8,1.1-1,2.2s-2,6-2,6s-2.8,5-1.5,10.4c0,0,0.1,2,0.3,2.2c0.2,0.2,2.4,2.3,6.7,1.9c0,0,5.4,3.1,12.2-1.3
			c0,0,1.8-1.9,1.2-4.3C470.1,30.8,469.9,29.3,468.5,27.8z"/>
		<path class="st1" d="M462.2,13.6l1,1.5c0,0,0.4,0.9,0,1.1c-0.4,0.2-0.8-0.9-1.7-2.4c0,0,0.7,2.4,0.7,2.5s0.2,0.9-0.5,0.9
			c-0.6,0-1.1-2.6-1.1-2.6l-0.4-0.3c0,0,0.7,3,0.4,3.4s-0.8,0-0.8-0.4s-0.3-2.3-0.7-2.8l0.2,3c0,0-0.1,0.6-0.6,0.5
			c-0.5,0-0.6-0.6-0.9-2.6h-0.3l-0.1,0.8c0,0-0.8-0.4-1-0.7c0,0,0,0.8,0.4,1.1s-0.2,0.5-0.6,0.4c-0.4-0.2-1.3-0.7-1.3-0.7
			s0.3,0.7,0.1,1.2c-0.2,0.5-1.2,3.8-0.3,5.1c0,0,0-3.8,1.1-4.7l0.4-0.1c0,0-0.5,3.5-0.4,4.2c0.1,0.8,0.2,2.6,0.2,2.6
			s0.2-1.3,0.4-1.5s0.3,1.9,0.7,2.4c0.3,0.5,0.9,3,0.6,3.8c-0.2,0.7-0.6,1.2-0.6,1.2s1.2-0.7,1.3-2.4c0.1-1.7,4.8-3.8,9.4,0.2
			c0,0,1.3,1.2,1.5,3.2s-2.3,3.8-5,4.3s-4.4,0.7-6,0.2c0,0-0.5-0.3,0.1-0.7c0.6-0.3,0.6-1.7,0.6-1.7s-0.6,1.7-2.7,2.1
			c-2,0.4-4.7-0.5-4.7-0.8c0,0,2-0.4,2.5-1.2c0,0-2.9,0.8-3.5,0.3s-0.7-0.8-0.4-0.8c0.2,0,0.6,0.3,0.9,0.3c0,0-1.1-1.3-1.3-2.5
			s0-5,1.9-9.7s2-6.4,2-6.4s0.6-1.5,1.9-1.4c1.2,0.1,1.9,0.4,2.9,0.3c0,0-1.5-0.4-1.7-0.6c-0.2-0.2,0-0.3,1.7,0
			c1.6,0.3,1.9,0.2,1.9,0.2s-0.9-0.3-0.9-0.5C459.7,12.7,461.3,12.4,462.2,13.6z"/>
		<path class="st0" d="M458.9,31c0,0,3.2,1.5,6.4,0c0,0,2.8-1.7,2.8-2.2c0,0,0.3,2.7-4.3,3.5C459.1,33,458.9,31,458.9,31z"/>
	</g>
	<text transform="matrix(1 0 0 1 471.2073 24.186)" class="st0" style="font-family:'RussoOne-Regular'; font-size:11.6031px;">FITNES</text>
	<text transform="matrix(1 0 0 1 515.2073 24.186)" class="st0" style="font-family:'RussoOne-Regular'; font-size:11.6031px;">S</text>
	<text transform="matrix(1 0 0 1 471.2073 35.686)" class="st0" style="font-family:'RussoOne-Regular'; font-size:11.6031px;">KITCHEN</text>
</g>
<g>
	<g>
		<path class="st2" d="M22.7,4.7l-3,0.8c-0.1,0-0.2,0-0.2-0.1s0-0.2,0.1-0.2l3-0.8c0.1,0,0.2-0.1,0.1-0.2c0-0.1-0.1-0.2-0.2-0.1
			l-3,0.8c-0.1,0-0.2,0-0.2-0.1s0-0.2,0.1-0.2l3-0.8c0.1,0,0.2-0.1,0.1-0.2c0-0.1-0.1-0.2-0.2-0.1l-3,0.8c-0.1,0-0.2,0-0.2-0.1
			s0-0.2,0.1-0.2l3-0.8c0.1,0,0.2-0.1,0.1-0.2c0-0.1-0.1-0.2-0.2-0.1l-3,0.8C18.7,3.8,18.3,3.9,18,4c-0.8,0.2-1.2,0.9-1.4,1.2
			c-0.1-0.2-0.4,0-0.6,0c-0.2,0.1-1.1,0.3-2,0.6c0,0,0,0,0-0.1c-0.7-0.8-1.6-2.1-3.1-2c-1.4,0.1-2.6,0-2.6,0s-1.6,0-3.2,1.5
			c0,0-0.8,1-0.9,2s-1.9,5.7-1.9,5.7s-2.6,4.7-1.4,9.8c0,0,0.1,1.8,0.3,2.1C1.4,25,3.5,27,7.5,26.6c0,0,5.1,2.9,11.4-1.2
			c0,0,1.7-1.8,1.1-4c0,0-0.2-1.4-1.5-2.8c0,0-3.9-4.7-9.2-1.4c0,0-1.5-4.1-1.5-4.8c-0.1-0.7-0.1-2.8,0.3-3c0.4-0.2,0.6,0,0.7,0.2
			c0.1,0.3,1.1,0.2,1.3,0.1c0,0,1,0.2,1.2,0c0,0,1,0.1,1.3-0.3c0,0,1.2,0.1,1.8-1.6c0,0,0.2-0.6,0-1.3C15.3,6.3,16,6,16.3,6
			c0.2,0,0.5-0.1,0.7,0c0.3,0.2,1,0.5,1.8,0.3c0.2-0.2,0.6-0.3,1-0.4l3-0.8C22.9,5,23,4.9,23,4.8C22.9,4.7,22.8,4.6,22.7,4.7z
			 M13.6,7.5c-0.3,0.2-0.8-0.8-1.6-2.2c0,0,0.6,2.2,0.6,2.3c0,0.1,0.1,0.8-0.4,0.8c-0.6,0-1-2.4-1-2.4l-0.3-0.3c0,0,0.6,2.8,0.3,3.2
			c-0.3,0.4-0.8,0-0.8-0.4s-0.3-2.2-0.6-2.7L10,8.7c0,0-0.1,0.5-0.5,0.5C9,9.2,8.9,8.7,8.7,6.8H8.4L8.3,7.5c0,0-0.8-0.3-0.9-0.6
			c0,0,0,0.8,0.4,1c0.4,0.2-0.2,0.5-0.6,0.4C6.9,8.1,6.1,7.6,6.1,7.6s0.3,0.7,0.1,1.1C6,9.2,5,12.3,5.9,13.5c0,0,0-3.6,1.1-4.4
			L7.3,9c0,0-0.5,3.2-0.3,4c0.1,0.7,0.1,2.5,0.1,2.5s0.2-1.3,0.4-1.4c0.2-0.2,0.3,1.8,0.7,2.2c0.3,0.5,0.8,2.9,0.6,3.5
			c-0.2,0.7-0.6,1.1-0.6,1.1s1.1-0.7,1.2-2.3c0.1-1.6,4.5-3.6,8.8,0.2c0,0,1.2,1.2,1.4,3c0.1,1.9-2.2,3.6-4.7,4s-4.2,0.7-5.6,0.2
			c0,0-0.4-0.3,0.1-0.6c0.5-0.3,0.6-1.6,0.6-1.6s-0.6,1.6-2.5,1.9S3.1,25.2,3.1,25c0,0,1.9-0.4,2.3-1.1c0,0-2.7,0.8-3.3,0.3
			s-0.6-0.8-0.4-0.7c0.2,0,0.6,0.3,0.8,0.3c0,0-1.1-1.2-1.2-2.4c-0.1-1.2,0-4.7,1.8-9.2s1.8-6,1.8-6s0.6-1.4,1.8-1.3
			C7.9,5,8.5,5.3,9.5,5.2c0,0-1.4-0.4-1.6-0.6c-0.2-0.2,0-0.3,1.6,0c1.5,0.3,1.7,0.2,1.7,0.2s-0.8-0.3-0.8-0.4
			c0-0.2,1.5-0.5,2.3,0.7l0.9,1.4c0,0,0,0,0,0.1l0,0l0,0C13.7,6.8,13.9,7.4,13.6,7.5z"/>
		<path class="st2" d="M14.1,22.6c4.4-0.8,4.1-3.3,4.1-3.3c0,0.5-2.6,2.1-2.6,2.1c-3,1.4-6,0-6,0S9.8,23.4,14.1,22.6z"/>
	</g>
	<g>
		<path class="st2" d="M24.6,15h-2V7.4h6.1v1.5h-4.1v1.8h3.2v1.5h-3.2V15z"/>
		<path class="st2" d="M33.1,15h-3.9v-1.5h1V8.9h-1V7.4h3.9v1.5h-1v4.6h1V15z"/>
		<path class="st2" d="M37.8,15h-2V8.9h-2.3V7.4h6.6v1.5h-2.3V15z"/>
		<path class="st2" d="M47.6,15h-2.1l-2.6-4.6V15h-2V7.4H43l2.6,4.6V7.4h2V15z"/>
		<path class="st2" d="M55,15h-6.1V7.4H55v1.5h-4.1v1.5h3.2v1.5h-3.2v1.6H55V15z"/>
		<path class="st2" d="M55.6,13.4c2,0.1,3.3,0.2,4.1,0.2c0.2,0,0.3,0,0.4-0.1c0.1-0.1,0.1-0.2,0.1-0.4v-1h-2.5
			c-0.8,0-1.3-0.2-1.7-0.5c-0.3-0.3-0.5-0.9-0.5-1.7V9.6c0-0.8,0.2-1.3,0.5-1.7c0.3-0.3,0.9-0.5,1.7-0.5h3.8v1.5h-3.4
			c-0.4,0-0.7,0.2-0.7,0.7v0.2c0,0.4,0.2,0.7,0.7,0.7h2c0.7,0,1.2,0.2,1.6,0.5c0.3,0.3,0.5,0.9,0.5,1.6v0.5c0,0.7-0.2,1.2-0.5,1.6
			c-0.3,0.3-0.9,0.5-1.6,0.5c-0.4,0-0.8,0-1.2,0h-1c-0.7,0-1.5-0.1-2.3-0.2C55.6,15,55.6,13.4,55.6,13.4z"/>
		<path class="st2" d="M63,13.4c2,0.1,3.3,0.2,4.1,0.2c0.2,0,0.3,0,0.4-0.1s0.1-0.2,0.1-0.4v-1H65c-0.8,0-1.3-0.2-1.7-0.5
			c-0.3-0.3-0.5-0.9-0.5-1.7V9.6c0-0.8,0.2-1.3,0.5-1.7c0.3-0.3,0.9-0.5,1.7-0.5h3.8v1.5h-3.4c-0.4,0-0.7,0.2-0.7,0.7v0.2
			c0,0.4,0.2,0.7,0.7,0.7h2c0.7,0,1.2,0.2,1.6,0.5c0.3,0.3,0.5,0.9,0.5,1.6v0.5c0,0.7-0.2,1.2-0.5,1.6c-0.3,0.3-0.9,0.5-1.6,0.5
			c-0.4,0-0.8,0-1.2,0h-1c-0.7,0-1.5-0.1-2.3-0.2L63,13.4L63,13.4z"/>
		<path class="st2" d="M24.6,25.8h-2v-7.6h2v3h1l1.7-3h2.1L27.2,22l2.1,3.9h-2.1l-1.7-3.1h-1v3H24.6z"/>
		<path class="st2" d="M33.6,25.8h-3.9v-1.5h1v-4.6h-1v-1.5h3.9v1.5h-1v4.6h1V25.8z"/>
		<path class="st2" d="M38.3,25.8h-2v-6.1H34v-1.5h6.6v1.5h-2.3V25.8z"/>
		<path class="st2" d="M47.3,25.7c-1.6,0.1-3,0.2-4,0.2c-0.7,0-1.2-0.2-1.6-0.5c-0.3-0.3-0.5-0.9-0.5-1.6v-3.5
			c0-0.8,0.2-1.3,0.5-1.7c0.3-0.3,0.9-0.5,1.7-0.5h3.9v1.5h-3.5c-0.4,0-0.7,0.2-0.7,0.7v3.5c0,0.2,0,0.3,0.1,0.4s0.2,0.1,0.4,0.1
			s0.3,0,0.5,0s0.4,0,0.6,0c0.2,0,0.4,0,0.6,0c0.2,0,0.5,0,0.8,0s0.7,0,1.2-0.1V25.7z"/>
		<path class="st2" d="M54.8,25.8h-2v-3.1h-2.7v3.1h-2v-7.6h2v3h2.7v-3h2V25.8z"/>
		<path class="st2" d="M62.2,25.8h-6.1v-7.6h6.1v1.5h-4.1v1.5h3.2v1.5h-3.2v1.6h4.1V25.8z"/>
		<path class="st2" d="M69.7,25.8h-2.1L65,21.2v4.6h-2v-7.6h2.1l2.6,4.6v-4.6h2V25.8z"/>
	</g>
</g>
<g>
	<g>
		<path class="st0" d="M263.2,57.7c0,0.1,0,0.2-0.1,0.2l-3.2,0.9c-0.1,0-0.2,0.1-0.1,0.2c0,0.1,0.1,0.2,0.2,0.1l3.2-0.9
			c0.1,0,0.2,0,0.2,0.1s0,0.2-0.1,0.2l-3.2,0.9c-0.1,0-0.2,0.1-0.1,0.2c0,0.1,0.1,0.2,0.2,0.1l3.2-0.9c0.1,0,0.2,0,0.2,0.1
			s0,0.2-0.1,0.2l-3.2,0.9c-0.1,0-0.2,0.1-0.1,0.2c0,0.1,0.1,0.2,0.2,0.1l3.2-0.9c0.1,0,0.2,0,0.2,0.1s0,0.2-0.1,0.2l-3.2,0.9
			c-0.4,0.1-0.8,0.2-1.2,0.3c-0.8,0.2-1.6-0.2-1.9-0.3c-0.2-0.1-0.6-0.1-0.7,0c-0.5,0.2-4.7,1.3-5.2,1.4c-0.5,0.1-5,1.8-5.4,1.9
			c-0.4,0.1-1.1-0.1-1.2-0.4c-0.1-0.3,0.5-0.9,0.8-1s5.1-1,5.6-1.2c0.5-0.1,4.6-1.3,5.2-1.4c0.2,0,0.5-0.2,0.6-0.4
			c0.2-0.3,0.6-1,1.4-1.3c0.4-0.1,0.8-0.2,1.2-0.3l3.2-0.9C263,57.5,263.2,57.6,263.2,57.7z"/>
		<path class="st0" d="M259.2,74.5c0,0-4.1-4.9-9.8-1.5c0,0-1.6-4.3-1.6-5.1s-0.1-3,0.3-3.2c0.4-0.2,0.6,0,0.7,0.3
			c0.1,0.3,1.2,0.2,1.4,0.1c0,0,1.1,0.2,1.3,0c0,0,1.1,0.1,1.4-0.3c0,0,1.3,0.1,1.9-1.7c0,0,0.4-1.2-0.4-2c-0.7-0.8-1.8-2.2-3.3-2.1
			c-1.5,0.1-2.8,0-2.8,0s-1.7-0.1-3.4,1.5c0,0-0.8,1.1-1,2.2c-0.1,1.1-2,6-2,6s-2.8,5-1.5,10.4c0,0,0.1,2,0.3,2.2s2.4,2.3,6.7,1.9
			c0,0,5.4,3.1,12.2-1.3c0,0,1.8-1.9,1.2-4.3C260.8,77.4,260.6,75.9,259.2,74.5z"/>
		<path class="st1" d="M252.9,60.3l1,1.5c0,0,0.4,0.9,0,1.1c-0.4,0.2-0.8-0.9-1.7-2.4c0,0,0.7,2.4,0.7,2.5s0.2,0.9-0.5,0.9
			c-0.6,0-1.1-2.6-1.1-2.6l-0.4-0.3c0,0,0.7,3,0.4,3.4s-0.8,0-0.8-0.4s-0.3-2.3-0.7-2.8l0.2,3c0,0-0.1,0.6-0.6,0.5s-0.6-0.6-0.9-2.6
			h-0.3l-0.1,0.8c0,0-0.8-0.4-1-0.7c0,0,0,0.8,0.4,1.1s-0.2,0.5-0.6,0.4c-0.4-0.2-1.3-0.7-1.3-0.7s0.3,0.7,0.1,1.2s-1.2,3.8-0.3,5.1
			c0,0,0-3.8,1.1-4.7l0.4-0.1c0,0-0.5,3.5-0.4,4.2c0.1,0.8,0.2,2.6,0.2,2.6s0.2-1.3,0.4-1.5s0.3,1.9,0.7,2.4c0.3,0.5,0.9,3,0.6,3.8
			c-0.2,0.7-0.6,1.2-0.6,1.2s1.2-0.7,1.3-2.4s4.8-3.8,9.4,0.2c0,0,1.3,1.2,1.5,3.2s-2.3,3.8-5,4.3c-2.7,0.5-4.4,0.7-6,0.2
			c0,0-0.5-0.3,0.1-0.7c0.6-0.3,0.6-1.7,0.6-1.7s-0.6,1.7-2.7,2.1c-2,0.4-4.7-0.5-4.7-0.8c0,0,2-0.4,2.5-1.2c0,0-2.9,0.8-3.5,0.3
			s-0.7-0.8-0.4-0.8c0.2,0,0.6,0.3,0.9,0.3c0,0-1.1-1.3-1.3-2.5c-0.1-1.3,0-5,1.9-9.7s2-6.4,2-6.4s0.6-1.5,1.9-1.4
			c1.2,0.1,1.9,0.4,2.9,0.3c0,0-1.5-0.4-1.7-0.6c-0.2-0.2,0-0.3,1.7,0c1.6,0.3,1.9,0.2,1.9,0.2s-0.9-0.3-0.9-0.5S252,59,252.9,60.3z
			"/>
		<path class="st0" d="M249.6,77.6c0,0,3.2,1.5,6.4,0c0,0,2.8-1.7,2.8-2.2c0,0,0.3,2.7-4.3,3.5C249.8,79.7,249.6,77.6,249.6,77.6z"
			/>
	</g>
	<text transform="matrix(1 0 0 1 261.9096 70.8316)" class="st0" style="font-family:'YatraOne-Regular'; font-size:11.6031px;">FITNES</text>
	<text transform="matrix(1 0 0 1 304.9096 70.8316)" class="st0" style="font-family:'YatraOne-Regular'; font-size:11.6031px;">S</text>
	<text transform="matrix(1 0 0 1 261.9096 82.3316)" class="st0" style="font-family:'YatraOne-Regular'; font-size:11.6031px;">KITCHEN</text>
</g>
<g>
	<g>
		<path class="st0" d="M365.9,11.2c0,0.1-0.1,0.2-0.2,0.2l-3.3,0.5c-0.1,0-0.2,0.1-0.2,0.2c0,0.1,0.1,0.2,0.2,0.2l3.3-0.5
			c0.1,0,0.2,0.1,0.2,0.2c0,0.1-0.1,0.2-0.2,0.2l-3.3,0.5c-0.1,0-0.2,0.1-0.2,0.2c0,0.1,0.1,0.2,0.2,0.2l3.3-0.5
			c0.1,0,0.2,0.1,0.2,0.2c0,0.1-0.1,0.2-0.2,0.2l-3.3,0.5c-0.1,0-0.2,0.1-0.2,0.2c0,0.1,0.1,0.2,0.2,0.2l3.3-0.5
			c0.1,0,0.2,0.1,0.2,0.2c0,0.1-0.1,0.2-0.2,0.2l-3.3,0.5c-0.4,0.1-0.8,0.1-1.2,0.2c-0.9,0.1-1.5-0.3-1.8-0.5
			c-0.2-0.1-0.6-0.1-0.7-0.1c-0.6,0.1-4.8,0.8-5.3,0.9c-0.5,0.1-5.2,1.3-5.6,1.3c-0.3,0.1-1.1-0.2-1.2-0.5s0.6-0.8,0.9-0.9
			c0.3-0.1,5.2-0.5,5.7-0.6s4.7-0.8,5.3-0.9c0.2,0,0.5-0.2,0.7-0.3c0.2-0.3,0.7-1,1.6-1.1c0.4-0.1,0.8-0.1,1.2-0.2l3.3-0.5
			C365.8,11,365.9,11.1,365.9,11.2z"/>
		<path class="st0" d="M360.1,27.4c0,0-3.5-5.4-9.5-2.6c0,0-1.1-4.5-1.1-5.2s0.2-3,0.6-3.1s0.6,0,0.7,0.3s1.1,0.4,1.4,0.2
			c0,0,1,0.3,1.3,0.2c0,0,1,0.2,1.4-0.2c0,0,1.3,0.2,2-1.5c0,0,0.5-1.2-0.1-2.1c-0.6-0.9-1.5-2.4-3-2.4c-1.5-0.1-2.8-0.3-2.8-0.3
			s-1.7-0.3-3.6,1.1c0,0-0.9,1-1.2,2.1s-2.7,5.8-2.7,5.8s-3.3,4.7-2.6,10.2c0,0-0.1,2,0.1,2.2c0.2,0.3,2.2,2.5,6.5,2.6
			c0,0,5,3.7,12.2,0c0,0,2-1.7,1.6-4.1C361.4,30.6,361.3,29,360.1,27.4z"/>
		<path class="st1" d="M355.4,12.7l0.8,1.6c0,0,0.3,1-0.1,1.1s-0.7-0.9-1.4-2.5c0,0,0.4,2.4,0.4,2.5c0,0.1,0.1,0.9-0.5,0.8
			c-0.6,0-0.8-2.7-0.8-2.7l-0.3-0.4c0,0,0.4,3,0,3.4s-0.8,0-0.8-0.5c0-0.4,0-2.3-0.4-2.9l-0.1,3c0,0-0.1,0.5-0.6,0.5
			c-0.5-0.1-0.5-0.6-0.6-2.7h-0.3l-0.2,0.8c0,0-0.8-0.4-0.9-0.8c0,0-0.1,0.8,0.3,1.1s-0.3,0.5-0.6,0.3c-0.3-0.2-1.2-0.9-1.2-0.9
			s0.2,0.8,0,1.2c-0.2,0.4-1.6,3.7-0.9,5c0,0,0.4-3.8,1.6-4.5l0.4-0.1c0,0-0.9,3.4-0.8,4.1c0.1,0.8-0.1,2.6-0.1,2.6s0.3-1.3,0.5-1.5
			s0.1,1.9,0.4,2.4s0.5,3.1,0.2,3.8c-0.3,0.7-0.7,1.1-0.7,1.1s1.3-0.6,1.5-2.3s5.2-3.2,9.3,1.2c0,0,1.2,1.4,1.1,3.4
			s-2.7,3.6-5.4,3.7c-2.7,0.2-4.5,0.3-5.9-0.4c0,0-0.4-0.4,0.2-0.6c0.6-0.3,0.8-1.6,0.8-1.6s-0.8,1.6-2.9,1.8s-4.6-1-4.6-1.3
			c0,0,2.1-0.2,2.6-0.9c0,0-2.9,0.5-3.5,0c-0.6-0.6-0.6-0.9-0.4-0.8c0.2,0,0.6,0.4,0.8,0.4c0,0-1-1.4-1-2.6c0-1.3,0.5-5,2.9-9.5
			s2.6-6.2,2.6-6.2s0.8-1.4,2-1.2s1.9,0.6,2.9,0.6c0,0-1.4-0.6-1.6-0.8s0-0.3,1.6,0.2s1.8,0.4,1.8,0.4s-0.8-0.4-0.8-0.5
			S354.6,11.3,355.4,12.7z"/>
		<path class="st0" d="M350.2,29.6c0,0,3,1.8,6.3,0.7c0,0,3-1.4,3-1.9c0,0,0,2.7-4.7,3C350.2,31.6,350.2,29.6,350.2,29.6z"/>
	</g>
	
		<text transform="matrix(1 0 0 1 362.1388 23.2217)" class="st0" style="font-family:'ChauPhilomeneOne-Regular'; font-size:10.2296px;">FITNESS</text>
	
		<text transform="matrix(1 0 0 1 362.1388 35.5217)" class="st0" style="font-family:'ChauPhilomeneOne-Regular'; font-size:10.2296px;">KITCHEN</text>
</g>
<circle class="st3" cx="334.5" cy="-88.5" r="3.5"/>
<g>
	<g>
		<path class="st0" d="M468-77.5c0,0.1,0,0.2-0.1,0.2l-2.7,1c-0.1,0-0.1,0.1-0.1,0.2s0.1,0.1,0.2,0.1l2.7-1c0.1,0,0.2,0,0.2,0.1
			s0,0.2-0.1,0.2l-2.7,1c-0.1,0-0.1,0.1-0.1,0.2s0.1,0.1,0.2,0.1l2.7-1c0.1,0,0.2,0,0.2,0.1s0,0.2-0.1,0.2l-2.7,1
			c-0.1,0-0.1,0.1-0.1,0.2s0.1,0.1,0.2,0.1l2.7-1c0.1,0,0.2,0,0.2,0.1s0,0.2-0.1,0.2l-2.7,1c-0.3,0.1-0.7,0.2-1,0.4
			c-0.7,0.3-1.3,0-1.6-0.2c-0.2-0.1-0.5,0-0.6,0c-0.5,0.2-3.9,1.4-4.3,1.6c-0.4,0.1-4.2,1.9-4.5,2s-1,0-1.1-0.3s0.4-0.8,0.6-0.9
			c0.3-0.1,4.3-1.2,4.7-1.3c0.4-0.1,3.9-1.4,4.3-1.6c0.1,0,0.4-0.2,0.5-0.4c0.2-0.3,0.4-0.9,1.2-1.2c0.3-0.1,0.7-0.2,1-0.4l2.7-1
			C467.9-77.6,468-77.5,468-77.5z"/>
		<path class="st0" d="M465.6-62.9c0,0-3.8-4-8.4-0.7c0,0-1.6-3.6-1.7-4.2s-0.3-2.6,0-2.7s0.5-0.1,0.6,0.2c0.1,0.2,1,0.1,1.2,0
			c0,0,0.9,0.1,1.1-0.1c0,0,0.9,0,1.1-0.4c0,0,1.1,0,1.5-1.6c0,0,0.2-1-0.4-1.7c-0.7-0.7-1.6-1.8-2.9-1.6s-2.4,0.2-2.4,0.2
			s-1.5,0-2.8,1.5c0,0-0.6,1-0.7,1.9s-1.3,5.3-1.3,5.3s-2.1,4.4-0.6,9c0,0,0.2,1.7,0.4,1.9c0.2,0.2,2.2,1.8,5.9,1.2
			c0,0,4.8,2.3,10.3-1.9c0,0,1.4-1.7,0.7-3.7C467.2-60.4,466.9-61.7,465.6-62.9z"/>
		<path class="st1" d="M459.4-74.6l0.9,1.2c0,0,0.4,0.8,0.1,0.9c-0.3,0.2-0.8-0.7-1.6-1.9c0,0,0.7,2,0.7,2.1s0.2,0.7-0.3,0.8
			c-0.5,0.1-1.1-2.1-1.1-2.1l-0.3-0.3c0,0,0.8,2.5,0.5,2.8c-0.2,0.3-0.7,0.1-0.7-0.3s-0.4-2-0.8-2.4l0.4,2.5c0,0,0,0.5-0.4,0.5
			s-0.6-0.4-0.9-2.2h-0.3v0.7c0,0-0.7-0.3-0.9-0.5c0,0,0.1,0.7,0.4,0.9c0.4,0.2-0.2,0.5-0.5,0.4s-1.1-0.5-1.1-0.5s0.3,0.6,0.2,1
			c-0.1,0.4-0.8,3.3,0.1,4.4c0,0-0.3-3.2,0.7-4.1l0.3-0.1c0,0-0.2,3,0,3.6s0.3,2.2,0.3,2.2s0.1-1.2,0.2-1.3s0.4,1.6,0.7,2
			c0.3,0.4,0.9,2.5,0.8,3.2c-0.2,0.6-0.5,1.1-0.5,1.1s1-0.7,0.9-2.1c-0.1-1.5,3.9-3.5,8-0.4c0,0,1.2,1,1.5,2.7s-1.7,3.4-4,4
			c-2.2,0.6-3.7,0.9-5.1,0.5c0,0-0.4-0.2,0-0.6c0.5-0.3,0.4-1.5,0.4-1.5s-0.4,1.5-2.1,1.9s-4-0.2-4-0.4c0,0,1.7-0.5,2.1-1.2
			c0,0-2.4,0.9-3,0.5s-0.6-0.6-0.4-0.6s0.6,0.2,0.8,0.2c0,0-1-1-1.2-2.1s-0.3-4.3,1-8.4c1.4-4.2,1.3-5.6,1.3-5.6s0.4-1.3,1.5-1.3
			s1.7,0.2,2.5,0.1c0,0-1.3-0.3-1.5-0.4s0-0.3,1.4-0.1c1.4,0.2,1.6,0.1,1.6,0.1s-0.8-0.2-0.8-0.3C457.2-75.2,458.5-75.6,459.4-74.6z
			"/>
		<path class="st0" d="M457.6-59.6c0,0,2.8,1,5.4-0.4c0,0,2.3-1.6,2.3-2.1c0,0,0.4,2.3-3.5,3.2S457.6-59.6,457.6-59.6z"/>
	</g>
	<text transform="matrix(1 0 0 1 468.7656 -65.8706)" class="st0" style="font-family:'Audiowide-Regular'; font-size:10.9151px;">FITNESS</text>
	<text transform="matrix(1 0 0 1 468.7656 -56.1706)" class="st0" style="font-family:'Audiowide-Regular'; font-size:10.9151px;">KITCHE</text>
	<text transform="matrix(1 0 0 1 513.5657 -56.1706)" class="st0" style="font-family:'Audiowide-Regular'; font-size:10.9151px;">N</text>
</g>
<circle class="st3" cx="443" cy="-88.5" r="3.5"/>
<g>
	<g>
		<path class="st0" d="M359.5-33.6c0,0.1,0,0.2-0.1,0.2l-2.7,1c-0.1,0-0.1,0.1-0.1,0.2c0,0.1,0.1,0.1,0.2,0.1l2.7-1
			c0.1,0,0.2,0,0.2,0.1s0,0.2-0.1,0.2l-2.7,1c-0.1,0-0.1,0.1-0.1,0.2s0.1,0.1,0.2,0.1l2.7-1c0.1,0,0.2,0,0.2,0.1s0,0.2-0.1,0.2
			l-2.7,1c-0.1,0-0.1,0.1-0.1,0.2s0.1,0.1,0.2,0.1l2.7-1c0.1,0,0.2,0,0.2,0.1s0,0.2-0.1,0.2l-2.7,1c-0.3,0.1-0.7,0.2-1,0.4
			c-0.7,0.3-1.3,0-1.6-0.2c-0.2-0.1-0.5,0-0.6,0c-0.5,0.2-3.9,1.4-4.3,1.6c-0.4,0.1-4.2,1.9-4.5,2s-1,0-1.1-0.3s0.4-0.8,0.6-0.9
			c0.3-0.1,4.3-1.2,4.7-1.3c0.4-0.1,3.9-1.4,4.3-1.6c0.1,0,0.4-0.2,0.5-0.4c0.2-0.3,0.4-0.9,1.2-1.2c0.3-0.1,0.7-0.2,1-0.4l2.7-1
			C359.3-33.8,359.4-33.7,359.5-33.6z"/>
		<path class="st0" d="M357.1-19c0,0-3.8-4-8.4-0.7c0,0-1.6-3.6-1.7-4.2s-0.3-2.6,0-2.7s0.5-0.1,0.6,0.2s1,0.1,1.2,0
			c0,0,0.9,0.1,1.1-0.1c0,0,0.9,0,1.1-0.4c0,0,1.1,0,1.5-1.6c0,0,0.2-1-0.4-1.7c-0.7-0.7-1.6-1.8-2.9-1.6s-2.4,0.2-2.4,0.2
			s-1.5,0-2.8,1.5c0,0-0.6,1-0.7,1.9S342-23,342-23s-2.1,4.4-0.6,9c0,0,0.2,1.7,0.4,1.9c0.2,0.2,2.2,1.8,5.9,1.2
			c0,0,4.8,2.3,10.3-1.9c0,0,1.4-1.7,0.7-3.7C358.7-16.6,358.4-17.9,357.1-19z"/>
		<path class="st1" d="M350.8-30.7l0.9,1.2c0,0,0.4,0.8,0.1,0.9c-0.3,0.2-0.8-0.7-1.6-1.9c0,0,0.7,2,0.7,2.1s0.2,0.7-0.3,0.8
			c-0.5,0.1-1.1-2.1-1.1-2.1l-0.3-0.3c0,0,0.8,2.5,0.5,2.8s-0.7,0.1-0.7-0.3s-0.4-2-0.8-2.4l0.4,2.5c0,0,0,0.5-0.4,0.5
			s-0.6-0.4-0.9-2.2H347v0.7c0,0-0.7-0.3-0.9-0.5c0,0,0.1,0.7,0.4,0.9c0.4,0.2-0.2,0.5-0.5,0.4s-1.1-0.5-1.1-0.5s0.3,0.6,0.2,1
			c-0.1,0.4-0.8,3.3,0.1,4.4c0,0-0.3-3.2,0.7-4.1l0.3-0.1c0,0-0.2,3,0,3.6s0.3,2.2,0.3,2.2s0.1-1.2,0.2-1.3c0.2-0.2,0.4,1.6,0.7,2
			c0.3,0.4,0.9,2.5,0.8,3.2s-0.5,1.1-0.5,1.1s1-0.7,0.9-2.1c-0.1-1.5,3.9-3.5,8-0.4c0,0,1.2,1,1.5,2.7s-1.7,3.4-4,4
			c-2.2,0.6-3.7,0.9-5.1,0.5c0,0-0.4-0.2,0-0.6s0.4-1.5,0.4-1.5s-0.4,1.5-2.1,1.9s-4-0.2-4-0.4c0,0,1.7-0.5,2.1-1.2
			c0,0-2.4,0.9-3,0.5s-0.6-0.6-0.4-0.6s0.6,0.2,0.8,0.2c0,0-1-1-1.2-2.1c-0.2-1.1-0.3-4.3,1-8.4c1.4-4.2,1.3-5.6,1.3-5.6
			s0.4-1.3,1.5-1.3s1.7,0.2,2.5,0.1c0,0-1.3-0.3-1.5-0.4s0-0.3,1.4-0.1c1.4,0.2,1.6,0.1,1.6,0.1s-0.8-0.2-0.8-0.3
			C348.7-31.4,350-31.8,350.8-30.7z"/>
		<path class="st0" d="M349.1-15.7c0,0,2.8,1,5.4-0.4c0,0,2.3-1.6,2.3-2.1c0,0,0.4,2.3-3.5,3.2C349.4-14,349.1-15.7,349.1-15.7z"/>
	</g>
	
		<text transform="matrix(1 0 0 1 360.2475 -22.028)" class="st0" style="font-family:'BlackHanSans-Regular'; font-size:10.9151px;">FITNESS</text>
	
		<text transform="matrix(1 0 0 1 360.2475 -12.328)" class="st0" style="font-family:'BlackHanSans-Regular'; font-size:10.9151px;">KITCHE</text>
	
		<text transform="matrix(1 0 0 1 399.1475 -12.328)" class="st0" style="font-family:'BlackHanSans-Regular'; font-size:10.9151px;">N</text>
</g>
<circle class="st3" cx="102.7" cy="-88.5" r="3.5"/>
<circle class="st3" cx="112.8" cy="-88.5" r="3.5"/>
<circle class="st3" cx="101.4" cy="-43.2" r="3.5"/>
<circle class="st3" cx="437" cy="-43.2" r="3.5"/>
<circle class="st3" cx="448.1" cy="-43.2" r="3.5"/>
<circle class="st3" cx="437" cy="1.2" r="3.5"/>
<circle class="st3" cx="446.5" cy="1.2" r="3.5"/>
<g>
	<g>
		<path class="st0" d="M155,57.7c0,0.1,0,0.2-0.1,0.2l-3.2,0.9c-0.1,0-0.2,0.1-0.1,0.2c0,0.1,0.1,0.2,0.2,0.1l3.2-0.9
			c0.1,0,0.2,0,0.2,0.1s0,0.2-0.1,0.2l-3.2,0.9c-0.1,0-0.2,0.1-0.1,0.2c0,0.1,0.1,0.2,0.2,0.1l3.2-0.9c0.1,0,0.2,0,0.2,0.1
			s0,0.2-0.1,0.2l-3.2,0.9c-0.1,0-0.2,0.1-0.1,0.2c0,0.1,0.1,0.2,0.2,0.1l3.2-0.9c0.1,0,0.2,0,0.2,0.1s0,0.2-0.1,0.2l-3.2,0.9
			c-0.4,0.1-0.8,0.2-1.2,0.3c-0.8,0.2-1.6-0.2-1.9-0.3c-0.2-0.1-0.6-0.1-0.7,0c-0.5,0.2-4.7,1.3-5.2,1.4c-0.5,0.1-5,1.8-5.4,1.9
			c-0.4,0.1-1.1-0.1-1.2-0.4c-0.1-0.3,0.5-0.9,0.8-1s5.1-1,5.6-1.2c0.5-0.1,4.6-1.3,5.2-1.4c0.2,0,0.5-0.2,0.6-0.4
			c0.2-0.3,0.6-1,1.4-1.3c0.4-0.1,0.8-0.2,1.2-0.3l3.2-0.9C154.9,57.5,155,57.6,155,57.7z"/>
		<path class="st0" d="M151.1,74.5c0,0-4.1-4.9-9.8-1.5c0,0-1.6-4.3-1.6-5.1s-0.1-3,0.3-3.2c0.4-0.2,0.6,0,0.7,0.3
			c0.1,0.3,1.2,0.2,1.4,0.1c0,0,1.1,0.2,1.3,0c0,0,1.1,0.1,1.4-0.3c0,0,1.3,0.1,1.9-1.7c0,0,0.4-1.2-0.4-2c-0.7-0.8-1.8-2.2-3.3-2.1
			c-1.5,0.1-2.8,0-2.8,0s-1.7-0.1-3.4,1.5c0,0-0.8,1.1-1,2.2c-0.1,1.1-2,6-2,6s-2.8,5-1.5,10.4c0,0,0.1,2,0.3,2.2s2.4,2.3,6.7,1.9
			c0,0,5.4,3.1,12.2-1.3c0,0,1.8-1.9,1.2-4.3C152.6,77.4,152.4,75.9,151.1,74.5z"/>
		<path class="st1" d="M144.7,60.3l1,1.5c0,0,0.4,0.9,0,1.1c-0.4,0.2-0.8-0.9-1.7-2.4c0,0,0.7,2.4,0.7,2.5s0.2,0.9-0.5,0.9
			c-0.6,0-1.1-2.6-1.1-2.6l-0.4-0.3c0,0,0.7,3,0.4,3.4s-0.8,0-0.8-0.4s-0.3-2.3-0.7-2.8l0.2,3c0,0-0.1,0.6-0.6,0.5s-0.6-0.6-0.9-2.6
			H140l-0.1,0.8c0,0-0.8-0.4-1-0.7c0,0,0,0.8,0.4,1.1s-0.2,0.5-0.6,0.4c-0.4-0.2-1.3-0.7-1.3-0.7s0.3,0.7,0.1,1.2s-1.2,3.8-0.3,5.1
			c0,0,0-3.8,1.1-4.7l0.4-0.1c0,0-0.5,3.5-0.4,4.2c0.1,0.8,0.2,2.6,0.2,2.6s0.2-1.3,0.4-1.5s0.3,1.9,0.7,2.4c0.3,0.5,0.9,3,0.6,3.8
			c-0.2,0.7-0.6,1.2-0.6,1.2s1.2-0.7,1.3-2.4s4.8-3.8,9.4,0.2c0,0,1.3,1.2,1.5,3.2s-2.3,3.8-5,4.3s-4.4,0.7-6,0.2
			c0,0-0.5-0.3,0.1-0.7c0.6-0.3,0.6-1.7,0.6-1.7s-0.6,1.7-2.7,2.1c-2,0.4-4.7-0.5-4.7-0.8c0,0,2-0.4,2.5-1.2c0,0-2.9,0.8-3.5,0.3
			s-0.7-0.8-0.4-0.8c0.2,0,0.6,0.3,0.9,0.3c0,0-1.1-1.3-1.3-2.5c-0.1-1.3,0-5,1.9-9.7s2-6.4,2-6.4s0.6-1.5,1.9-1.4
			c1.2,0.1,1.9,0.4,2.9,0.3c0,0-1.5-0.4-1.7-0.6c-0.2-0.2,0-0.3,1.7,0c1.6,0.3,1.9,0.2,1.9,0.2s-0.9-0.3-0.9-0.5
			S143.9,59,144.7,60.3z"/>
		<path class="st0" d="M141.4,77.6c0,0,3.2,1.5,6.4,0c0,0,2.8-1.7,2.8-2.2c0,0,0.3,2.7-4.3,3.5C141.6,79.7,141.4,77.6,141.4,77.6z"
			/>
	</g>
	<text transform="matrix(1 0 0 1 153.7645 70.8316)" class="st0" style="font-family:'Bungee-Regular'; font-size:11.6031px;">FITNES</text>
	<text transform="matrix(1 0 0 1 200.4645 70.8316)" class="st0" style="font-family:'Bungee-Regular'; font-size:11.6031px;">S</text>
	<text transform="matrix(1 0 0 1 153.7645 82.3316)" class="st0" style="font-family:'Bungee-Regular'; font-size:11.6031px;">KITCHE</text>
	<text transform="matrix(1 0 0 1 200.0645 82.3316)" class="st0" style="font-family:'Bungee-Regular'; font-size:11.6031px;">N</text>
</g>
<circle class="st3" cx="98.5" cy="97.9" r="3.5"/>
<circle class="st3" cx="224" cy="97.9" r="3.5"/>
<g>
	<g>
		<path class="st0" d="M152.6-33.1c0,0.1,0,0.2-0.1,0.2l-2.8,0.6c-0.1,0-0.2,0.1-0.1,0.2c0,0.1,0.1,0.2,0.2,0.1l2.8-0.6
			c0.1,0,0.2,0,0.2,0.1s0,0.2-0.1,0.2l-2.8,0.6c-0.1,0-0.2,0.1-0.1,0.2c0,0.1,0.1,0.2,0.2,0.1l2.8-0.6c0.1,0,0.2,0,0.2,0.1
			c0,0.1,0,0.2-0.1,0.2l-2.8,0.6c-0.1,0-0.2,0.1-0.1,0.2c0,0.1,0.1,0.2,0.2,0.1l2.8-0.6c0.1,0,0.2,0,0.2,0.1s0,0.2-0.1,0.2l-2.8,0.6
			c-0.4,0.1-0.7,0.2-1,0.2c-0.7,0.2-1.3-0.2-1.6-0.4c-0.2-0.1-0.5-0.1-0.6-0.1c-0.5,0.1-4.1,0.9-4.5,1s-4.4,1.3-4.7,1.3
			c-0.3,0.1-0.9-0.1-1-0.4s0.5-0.7,0.7-0.8c0.3-0.1,4.4-0.6,4.8-0.7c0.4-0.1,4-0.9,4.5-1c0.1,0,0.5-0.2,0.6-0.3
			c0.2-0.3,0.6-0.8,1.3-1c0.3-0.1,0.7-0.1,1-0.2l2.8-0.6C152.5-33.2,152.6-33.1,152.6-33.1z"/>
		<path class="st0" d="M148.4-18.9c0,0-3.2-4.4-8.3-1.8c0,0-1.1-3.8-1.1-4.4s0-2.6,0.4-2.7s0.5,0,0.6,0.3c0.1,0.2,1,0.3,1.2,0.1
			c0,0,0.9,0.2,1.1,0.1c0,0,0.9,0.1,1.2-0.2c0,0,1.1,0.2,1.7-1.3c0,0,0.4-1-0.2-1.8c-0.6-0.8-1.4-2-2.7-2s-2.4-0.1-2.4-0.1
			s-1.5-0.2-3,1.1c0,0-0.7,0.9-0.9,1.8s-2,5.1-2,5.1s-2.6,4.1-1.8,8.8c0,0,0,1.7,0.2,1.9s1.9,2.1,5.7,1.9c0,0,4.4,2.9,10.5-0.5
			c0,0,1.7-1.5,1.2-3.6C149.6-16.3,149.5-17.6,148.4-18.9z"/>
		<path class="st1" d="M143.7-31.3l0.8,1.3c0,0,0.3,0.8,0,0.9s-0.7-0.8-1.3-2.1c0,0,0.5,2,0.5,2.2c0,0.1,0.1,0.7-0.4,0.7
			s-0.8-2.2-0.8-2.2l-0.3-0.3c0,0,0.4,2.6,0.1,2.9c-0.3,0.3-0.7,0-0.7-0.4s-0.1-2-0.4-2.4v2.6c0,0-0.1,0.5-0.5,0.4
			c-0.4,0-0.5-0.5-0.6-2.2h-0.3l-0.1,0.7c0,0-0.7-0.4-0.8-0.6c0,0,0,0.7,0.3,1c0.4,0.2-0.2,0.4-0.5,0.3c-0.3-0.2-1-0.7-1-0.7
			s0.2,0.6,0.1,1c-0.2,0.4-1.2,3.2-0.5,4.4c0,0,0.2-3.3,1.2-4l0.3-0.1c0,0-0.6,2.9-0.5,3.6s0,2.2,0,2.2s0.2-1.1,0.4-1.3
			s0.2,1.6,0.5,2s0.6,2.6,0.4,3.2s-0.6,1-0.6,1s1.1-0.5,1.2-2s4.3-3,8,0.7c0,0,1.1,1.1,1.1,2.8s-2.2,3.2-4.5,3.4s-3.8,0.4-5.1-0.1
			c0,0-0.4-0.3,0.1-0.6s0.6-1.4,0.6-1.4s-0.6,1.4-2.4,1.6c-1.8,0.2-4-0.7-4-0.9c0,0,1.8-0.3,2.2-0.9c0,0-2.5,0.6-3,0.1
			s-0.5-0.7-0.3-0.7s0.5,0.3,0.7,0.3c0,0-0.9-1.1-1-2.2s0.2-4.3,2.1-8.2s2-5.4,2-5.4s0.6-1.2,1.7-1.1c1.1,0.1,1.6,0.5,2.5,0.4
			c0,0-1.3-0.5-1.4-0.6c-0.1-0.2,0-0.3,1.4,0.1s1.6,0.3,1.6,0.3s-0.7-0.3-0.7-0.4C141.6-32.3,143-32.5,143.7-31.3z"/>
		<path class="st0" d="M140-16.7c0,0,2.7,1.4,5.4,0.3c0,0,2.5-1.3,2.5-1.8c0,0,0.1,2.3-3.9,2.7C140.1-14.9,140-16.7,140-16.7z"/>
	</g>
	
		<text transform="matrix(1 0 0 1 150.5601 -22.002)" class="st0" style="font-family:'BubblegumSans-Regular'; font-size:10.6653px;">FITNES</text>
	
		<text transform="matrix(1 0 0 1 182.6601 -22.002)" class="st0" style="font-family:'BubblegumSans-Regular'; font-size:10.6653px;">S</text>
	
		<text transform="matrix(1 0 0 1 150.5601 -11.602)" class="st0" style="font-family:'BubblegumSans-Regular'; font-size:10.6653px;">KITCHE</text>
	
		<text transform="matrix(1 0 0 1 182.3601 -11.602)" class="st0" style="font-family:'BubblegumSans-Regular'; font-size:10.6653px;">N</text>
</g>
<g>
	<text transform="matrix(1 0 0 1 120.427 -59.7284)" class="st0" style="font-family:'JockeyOne-Regular'; font-size:18px;">1</text>
</g>
<g>
	<text transform="matrix(1 0 0 1 227.5261 -59.7284)" class="st0" style="font-family:'JockeyOne-Regular'; font-size:18px;">2</text>
</g>
<g>
	<text transform="matrix(1 0 0 1 330.9457 -59.7284)" class="st0" style="font-family:'JockeyOne-Regular'; font-size:18px;">3</text>
</g>
<g>
	<text transform="matrix(1 0 0 1 437.4485 -59.7284)" class="st0" style="font-family:'JockeyOne-Regular'; font-size:18px;">4</text>
</g>
<g>
	<text transform="matrix(1 0 0 1 120.427 -18.2867)" class="st0" style="font-family:'JockeyOne-Regular'; font-size:18px;">5</text>
</g>
<g>
	<text transform="matrix(1 0 0 1 227.5261 -18.2867)" class="st0" style="font-family:'JockeyOne-Regular'; font-size:18px;">6</text>
</g>
<g>
	<text transform="matrix(1 0 0 1 330.9457 -18.2867)" class="st0" style="font-family:'JockeyOne-Regular'; font-size:18px;">7</text>
</g>
<g>
	<text transform="matrix(1 0 0 1 437.4485 -18.2867)" class="st0" style="font-family:'JockeyOne-Regular'; font-size:18px;">8</text>
</g>
<g>
	<text transform="matrix(1 0 0 1 120.427 26.4496)" class="st0" style="font-family:'JockeyOne-Regular'; font-size:18px;">9</text>
</g>
<g>
	<text transform="matrix(1 0 0 1 222.5401 26.4496)" class="st0" style="font-family:'JockeyOne-Regular'; font-size:18px;">10</text>
</g>
<g>
	<text transform="matrix(1 0 0 1 326.9432 26.4496)" class="st0" style="font-family:'JockeyOne-Regular'; font-size:18px;">11</text>
</g>
<g>
	<text transform="matrix(1 0 0 1 120.427 71.4776)" class="st0" style="font-family:'JockeyOne-Regular'; font-size:18px;">13</text>
</g>
<g>
	<text transform="matrix(1 0 0 1 222.7921 71.4776)" class="st0" style="font-family:'JockeyOne-Regular'; font-size:18px;">14</text>
</g>
<g>
	<text transform="matrix(1 0 0 1 433.4459 26.4496)" class="st0" style="font-family:'JockeyOne-Regular'; font-size:18px;">12</text>
</g>
</svg>
